<svg width="141" height="32" viewBox="0 0 141 32" fill="none" xmlns="http://www.w3.org/2000/svg">
<path d="M13.6535 0.00250948C12.5213 -0.0548799 11.5909 0.879746 11.648 2.01699C11.697 2.99144 12.4852 3.78201 13.4541 3.8312C14.5862 3.88859 15.5167 2.95396 15.4595 1.81672C15.4106 0.843439 14.6235 0.0517003 13.6535 0.00250948ZM17.8544 2.42926C16.7223 2.37187 15.7918 3.3065 15.849 4.44374C15.8979 5.41819 16.6861 6.20876 17.655 6.25795C18.7872 6.31534 19.7176 5.38071 19.6605 4.24347C19.6115 3.27019 18.8233 2.47845 17.8544 2.42926ZM22.0542 4.85484C20.9221 4.79745 19.9916 5.7309 20.0487 6.86932C20.0977 7.84377 20.8859 8.63434 21.8548 8.68353C22.987 8.74092 23.9174 7.80746 23.8603 6.66904C23.8125 5.69577 23.0243 4.9052 22.0542 4.85484ZM26.0569 11.1103C27.1891 11.1677 28.1195 10.2342 28.0624 9.09579C28.0134 8.12134 27.2252 7.33078 26.2563 7.28159C25.1242 7.2242 24.1937 8.15765 24.2509 9.29607C24.2987 10.2693 25.0869 11.0611 26.0569 11.1103ZM13.6535 4.85484C12.5213 4.79745 11.5909 5.7309 11.648 6.86932C11.697 7.84377 12.4852 8.63434 13.4541 8.68353C14.5862 8.74092 15.5167 7.80746 15.4595 6.66904C15.4117 5.69577 14.6235 4.9052 13.6535 4.85484ZM17.8544 7.28159C16.7223 7.2242 15.7918 8.15765 15.849 9.29607C15.8979 10.2705 16.6861 11.0611 17.655 11.1103C18.7872 11.1677 19.7176 10.2342 19.6605 9.09579C19.6115 8.12252 18.8233 7.33078 17.8544 7.28159ZM22.0542 9.70834C20.9221 9.65095 19.9916 10.5856 20.0487 11.7228C20.0977 12.6973 20.8859 13.4878 21.8548 13.537C22.987 13.5944 23.9174 12.6598 23.8603 11.5225C23.8125 10.5481 23.0243 9.75753 22.0542 9.70834ZM26.2551 12.1339C25.123 12.0765 24.1926 13.0112 24.2497 14.1484C24.2987 15.1228 25.0869 15.9134 26.0558 15.9626C27.1879 16.02 28.1184 15.0854 28.0612 13.9481C28.0123 12.9748 27.2241 12.1831 26.2551 12.1339ZM13.6535 9.70834C12.5213 9.65095 11.5909 10.5856 11.648 11.7228C11.697 12.6973 12.4852 13.4878 13.4541 13.537C14.5862 13.5944 15.5167 12.6598 15.4595 11.5225C15.4106 10.5481 14.6235 9.75753 13.6535 9.70834ZM17.8544 12.1339C16.7223 12.0765 15.7918 13.0112 15.849 14.1484C15.8979 15.1228 16.6861 15.9134 17.655 15.9626C18.7872 16.02 19.7176 15.0854 19.6605 13.9481C19.6115 12.9748 18.8233 12.1831 17.8544 12.1339ZM22.0542 14.5607C20.9221 14.5033 19.9916 15.4379 20.0487 16.5751C20.0977 17.5496 20.8859 18.3402 21.8548 18.3894C22.987 18.4467 23.9174 17.5121 23.8603 16.3749C23.8125 15.4016 23.0243 14.6099 22.0542 14.5607ZM26.2551 16.9862C25.123 16.9289 24.1926 17.8635 24.2497 19.0007C24.2987 19.9752 25.0869 20.7657 26.0558 20.8149C27.1879 20.8723 28.1184 19.9377 28.0612 18.8004C28.0123 17.8272 27.2241 17.0366 26.2551 16.9862ZM13.6535 14.5607C12.5213 14.5033 11.5909 15.4379 11.648 16.5751C11.697 17.5496 12.4852 18.3402 13.4541 18.3894C14.5862 18.4467 15.5167 17.5121 15.4595 16.3749C15.4106 15.4016 14.6235 14.6099 13.6535 14.5607ZM17.8544 16.9862C16.7223 16.9289 15.7918 17.8635 15.849 19.0007C15.8979 19.9752 16.6861 20.7657 17.655 20.8149C18.7872 20.8723 19.7176 19.9377 19.6605 18.8004C19.6115 17.8272 18.8233 17.0366 17.8544 16.9862ZM22.0542 19.413C20.9221 19.3556 19.9916 20.2902 20.0487 21.4275C20.0977 22.4019 20.8859 23.1925 21.8548 23.2417C22.987 23.2991 23.9174 22.3644 23.8603 21.2272C23.8113 20.2539 23.0243 19.4622 22.0542 19.413ZM26.2551 21.8397C25.123 21.7824 24.1926 22.7158 24.2497 23.8542C24.2987 24.8287 25.0869 25.6192 26.0558 25.6684C27.1879 25.7258 28.1184 24.7924 28.0612 23.6539C28.0123 22.6807 27.2252 21.8889 26.2551 21.8397Z" fill="#FF6633"/>
<path d="M17.7553 27.321C17.6049 27.321 17.4615 27.3492 17.3286 27.3983C17.2155 27.4393 17.0989 27.4686 16.9788 27.4768C16.9543 27.478 16.931 27.4792 16.9124 27.4792C16.0484 27.4792 15.2987 26.9919 14.9186 26.2763L14.9127 26.2646C14.8614 26.1674 14.8276 26.062 14.809 25.9531C14.7029 25.3522 14.1852 24.8943 13.5556 24.8943C13.4086 24.8943 13.2676 24.9212 13.137 24.9681C13.0204 25.0102 12.8991 25.0407 12.7755 25.0501C12.751 25.0524 12.7289 25.0524 12.7091 25.0524C11.8241 25.0524 11.0697 24.5593 10.7001 23.818L10.6989 23.8168C10.6558 23.7289 10.6255 23.6352 10.6092 23.538C10.5066 22.9313 9.98655 22.4687 9.35343 22.4687C9.20769 22.4687 9.06894 22.4957 8.93835 22.5413C8.83458 22.5776 8.72731 22.6022 8.61771 22.6093C8.5804 22.6116 8.54425 22.6128 8.51627 22.6128C7.57534 22.6128 6.765 21.9323 6.42571 21.1113L6.37907 20.9813C6.32776 20.7974 6.23798 20.6299 6.11672 20.4894C6.02228 20.3793 5.9325 20.2668 5.85438 20.145C5.78209 20.0314 5.70281 19.9026 5.6655 19.8206C5.53141 19.5243 5.42298 19.201 5.42298 18.9012C5.42298 18.5393 5.50809 18.1973 5.65967 17.894C5.669 17.8752 5.68066 17.8518 5.69465 17.8272C5.7786 17.6726 5.8917 17.5356 6.02112 17.4161C6.28696 17.169 6.44786 16.8106 6.43037 16.4147C6.40005 15.753 5.86255 15.2166 5.20378 15.1908C4.47389 15.1627 3.87342 15.7483 3.87342 16.4745C3.87342 16.8469 4.03199 17.1819 4.28384 17.4173C4.42608 17.5496 4.55201 17.6995 4.64528 17.8705C4.66277 17.9022 4.67793 17.9314 4.68959 17.9572C4.82134 18.2442 4.89596 18.5639 4.89596 18.9012C4.89596 19.2303 4.87148 19.8417 4.4016 20.2879C4.08796 20.5854 3.83378 20.9661 3.87808 21.4439C3.92822 21.9932 4.33048 22.4488 4.86448 22.5776C5.12566 22.6409 5.37051 22.614 5.58855 22.5308C5.70164 22.4875 5.82057 22.4605 5.94183 22.4558C5.96515 22.4547 5.98497 22.4547 6.0013 22.4547C6.85711 22.4547 7.61032 22.9138 7.99392 23.6153L7.99509 23.6165C8.04289 23.7032 8.07204 23.7992 8.0837 23.8988C8.15482 24.5406 8.69466 25.0395 9.35226 25.0395C9.505 25.0395 9.64958 25.0102 9.78484 24.9599C9.89327 24.9201 10.0052 24.892 10.1206 24.8849C10.1521 24.8826 10.1813 24.8814 10.2023 24.8814C11.0231 24.8814 11.7436 25.3276 12.1401 25.987C12.1424 25.9917 12.1459 25.9964 12.1494 26.0023C12.2217 26.1276 12.2742 26.2646 12.2998 26.4087C12.4059 27.0095 12.9248 27.4674 13.5544 27.4674C13.7106 27.4674 13.8587 27.437 13.9951 27.3843C14.1222 27.3351 14.2575 27.3117 14.3939 27.3093C14.4009 27.3093 14.4067 27.3093 14.4125 27.3093C15.224 27.3093 15.9236 27.7298 16.3189 28.3728C16.3224 28.3787 16.3259 28.3845 16.3294 28.3904C16.4145 28.5344 16.4728 28.6937 16.5054 28.8588C16.6244 29.4667 17.1654 29.9223 17.8113 29.8942C18.4701 29.8661 19.0064 29.3262 19.0332 28.6633C19.0624 27.9254 18.4794 27.321 17.7553 27.321ZM5.15364 12.907C5.86021 12.907 6.4327 12.3319 6.4327 11.6221C6.4327 10.9124 5.86021 10.3373 5.15364 10.3373C4.44707 10.3373 3.87458 10.9124 3.87458 11.6221C3.87458 12.3319 4.44707 12.907 5.15364 12.907ZM5.15364 8.05462C5.86021 8.05462 6.4327 7.47956 6.4327 6.7698C6.4327 6.06005 5.86021 5.48499 5.15364 5.48499C4.44707 5.48499 3.87458 6.06005 3.87458 6.7698C3.87458 7.47956 4.44707 8.05462 5.15364 8.05462Z" fill="#FF9900"/>
<path d="M22.1242 24.5874C21.8747 24.5616 21.6368 24.5944 21.42 24.6717C21.315 24.7092 21.2078 24.7443 21.0993 24.7689C20.9909 24.7935 20.865 24.8169 20.774 24.8169C20.2097 24.8169 19.7212 24.4925 19.4821 24.0193C19.446 23.9491 19.4087 23.8284 19.3807 23.7265C19.3585 23.6469 19.3387 23.5661 19.3247 23.4841C19.1976 22.7287 18.5435 22.1524 17.7553 22.1524C17.5385 22.1524 17.3333 22.1969 17.1456 22.2754C17.1141 22.2883 17.0826 22.3023 17.0499 22.3141C16.9007 22.3668 16.7398 22.3984 16.5731 22.3984C15.9796 22.3984 15.4701 22.04 15.2462 21.527C15.1844 21.3853 15.1273 21.0702 15.1273 21.0702C15.0048 20.3078 14.3484 19.7257 13.5556 19.7257C13.3632 19.7257 13.179 19.762 13.0076 19.8252C13.0076 19.8252 12.6006 19.9634 12.3768 19.9634C11.7623 19.9634 11.2388 19.5793 11.0278 19.037C10.9753 18.9023 10.9193 18.5978 10.9193 18.5978C10.8494 18.2324 10.6558 17.9115 10.3842 17.6807C10.3072 17.6152 10.2337 17.5472 10.1661 17.4711C10.0903 17.3868 10.0017 17.279 9.95508 17.2005C9.83149 16.9874 9.76153 16.7391 9.76153 16.4744C9.76153 16.1652 9.85714 15.8782 10.0215 15.6428C10.0565 15.5913 10.1171 15.5234 10.1731 15.4648C10.2372 15.3969 10.3072 15.3336 10.3783 15.2727C10.7258 14.9788 10.9485 14.5407 10.9485 14.0476C10.9485 13.5546 10.7258 13.1154 10.3772 12.8226C10.3002 12.757 10.2244 12.6902 10.1556 12.6164C10.1288 12.5871 10.1032 12.559 10.0845 12.5368C9.88279 12.2873 9.76269 11.9687 9.76269 11.6221C9.76269 11.3609 9.83149 11.1149 9.95158 10.9029C10.0017 10.8151 10.1032 10.6945 10.1836 10.6055C10.2442 10.5387 10.3095 10.4778 10.3783 10.4204C10.7514 10.1065 10.98 9.62398 10.945 9.08991C10.8925 8.27826 10.2279 7.62824 9.41874 7.59661C8.50929 7.56031 7.76074 8.29114 7.76074 9.19649C7.76074 9.6884 7.98227 10.1276 8.3309 10.4216C8.40085 10.4813 8.46848 10.5422 8.53144 10.6101C8.59907 10.6839 8.67952 10.7765 8.72149 10.8444C8.86374 11.0693 8.94652 11.3375 8.94652 11.6232C8.94652 11.9699 8.82526 12.2885 8.62355 12.5391C8.6049 12.5614 8.58041 12.5895 8.5536 12.6188C8.48364 12.6926 8.40902 12.7605 8.3309 12.8261C7.98344 13.12 7.76074 13.5581 7.76074 14.0512C7.76074 14.5454 7.98461 14.9858 8.33439 15.2786C8.40552 15.3383 8.47314 15.3992 8.53727 15.4672C8.58274 15.5152 8.62938 15.5679 8.6597 15.6077C8.84042 15.8501 8.94652 16.1511 8.94652 16.4779C8.94652 16.7801 8.85441 17.0612 8.69701 17.2942C8.6597 17.3493 8.59324 17.4242 8.53494 17.4887C8.47198 17.5566 8.40202 17.6198 8.3309 17.6796C7.95779 17.9935 7.73043 18.4748 7.76424 19.0089C7.81554 19.8159 8.47198 20.4647 9.27532 20.5034C9.51551 20.5151 9.74521 20.4729 9.95275 20.3886C10.0892 20.3324 10.2314 20.2914 10.3783 20.2726C10.4378 20.2656 10.4961 20.2598 10.5404 20.2598C11.0429 20.2598 11.486 20.5174 11.746 20.9086C11.7705 20.9449 11.7961 20.9953 11.8218 21.0491C11.9011 21.2178 11.9547 21.397 11.9827 21.5809C12.1028 22.3457 12.7592 22.9313 13.5544 22.9313C13.7561 22.9313 13.9485 22.8926 14.1257 22.8235C14.2493 22.7755 14.3776 22.738 14.5081 22.7193C14.5886 22.7076 14.6737 22.6982 14.7355 22.6982C15.2579 22.6982 15.7149 22.9758 15.9703 23.3916C16.0052 23.449 16.0426 23.5356 16.0752 23.62C16.1265 23.7523 16.1603 23.8905 16.1848 24.031C16.3142 24.7853 16.966 25.358 17.7542 25.358C17.9547 25.358 18.1459 25.3194 18.3232 25.2515C18.4712 25.1941 18.6263 25.1554 18.7837 25.132C18.8397 25.1238 18.8945 25.1179 18.9388 25.1179C19.5183 25.1179 20.0185 25.4611 20.2493 25.9553C20.275 26.0116 20.303 26.0971 20.3251 26.1744C20.3508 26.2645 20.3683 26.3559 20.3834 26.4473C20.5082 27.2062 21.1646 27.7848 21.9551 27.7848C22.8727 27.7848 23.6096 27.0048 23.5455 26.069C23.4919 25.296 22.8879 24.6682 22.1242 24.5874ZM9.35461 5.94403C10.2349 5.94403 10.9485 5.22725 10.9485 4.34299C10.9485 3.45872 10.2349 2.74194 9.35461 2.74194C8.47431 2.74194 7.76074 3.45872 7.76074 4.34299C7.76074 5.22725 8.47431 5.94403 9.35461 5.94403Z" fill="#FF6633"/>
<path d="M0.952589 19.8697C1.47727 19.8697 1.90285 19.4364 1.90285 18.9012C1.90285 18.3659 1.47727 17.9326 0.952589 17.9326C0.427907 17.9326 0.00233242 18.3659 0.00233242 18.9012C0.00233242 19.4364 0.427907 19.8697 0.952589 19.8697ZM0.952589 15.0174C1.47727 15.0174 1.90285 14.5841 1.90285 14.0488C1.90285 13.5136 1.47727 13.0802 0.952589 13.0802C0.427907 13.0802 0.00233242 13.5136 0.00233242 14.0488C0.00233242 14.5841 0.427907 15.0174 0.952589 15.0174ZM0.952589 10.1651C1.47727 10.1651 1.90285 9.73174 1.90285 9.1965C1.90285 8.66125 1.47727 8.22791 0.952589 8.22791C0.427907 8.22791 0.00233242 8.66125 0.00233242 9.1965C0.00233242 9.73174 0.427907 10.1651 0.952589 10.1651ZM13.5543 30.064C13.5181 30.064 13.2243 30.0851 13.1147 30.0851C11.9091 30.0851 10.8656 29.4151 10.3421 28.436C10.3024 28.3622 10.2126 28.1982 10.2126 28.1982C10.0611 27.868 9.7346 27.6372 9.35333 27.6372C9.32185 27.6372 9.02919 27.6677 8.91026 27.6677C7.74547 27.6677 6.73225 27.0422 6.19241 26.1158C6.12712 26.0034 6.00469 25.7574 6.00469 25.7574C5.85079 25.4353 5.52898 25.2105 5.15238 25.2105C5.12556 25.2105 4.82008 25.2374 4.69415 25.2374C3.47573 25.2374 2.4217 24.5534 1.90285 23.5555C1.87719 23.5064 1.85271 23.456 1.83289 23.4033C1.69531 23.0414 1.35368 22.7837 0.950256 22.7837C0.425575 22.7837 0 23.2171 0 23.7523C0 24.2876 0.425575 24.7209 0.950256 24.7209C0.992231 24.7209 1.29305 24.6987 1.40032 24.6987C2.50914 24.6987 3.48155 25.2655 4.03772 26.1182C4.12983 26.2599 4.28257 26.5691 4.28257 26.5691C4.43065 26.9087 4.76294 27.1465 5.15121 27.1465C5.18852 27.1465 5.48701 27.1289 5.59427 27.1289C6.77306 27.1289 7.79677 27.7684 8.33078 28.7136C8.38325 28.8061 8.49052 29.0099 8.49052 29.0099C8.64093 29.3413 8.96856 29.5732 9.351 29.5732C9.38364 29.5732 9.67863 29.5522 9.79173 29.5522C10.9437 29.5522 11.9499 30.1612 12.4944 31.07C12.5655 31.1895 12.6985 31.4507 12.6985 31.4507C12.8524 31.7751 13.1753 32 13.5519 32C14.0766 32 14.5022 31.5666 14.5022 31.0314C14.5045 30.4973 14.079 30.064 13.5543 30.064Z" fill="#FF9900"/>
<path d="M54.0621 21.1569H53.099C52.9894 21.1569 52.8891 21.2214 52.8436 21.3221L51.947 23.2921C51.8619 23.4795 51.9972 23.6914 52.2024 23.6914H53.1806C53.2914 23.6914 53.3916 23.6259 53.4371 23.5251L54.3174 21.5563C54.4014 21.3678 54.2649 21.1569 54.0621 21.1569ZM75.7839 9.62051C74.9444 9.31951 74.035 9.16842 73.0567 9.16842C71.6366 9.16842 70.354 9.48348 69.2067 10.1148C68.0606 10.746 67.1628 11.6198 66.5134 12.7371C65.8651 13.8544 65.5409 15.1065 65.5409 16.4908C65.5409 17.8764 65.8651 19.1272 66.5134 20.2446C67.1616 21.3619 68.0559 22.2368 69.1962 22.8669C70.3365 23.4982 71.6156 23.8132 73.0357 23.8132C74.0186 23.8132 74.9351 23.6575 75.7839 23.3483C75.8947 23.3073 75.9681 23.1995 75.9681 23.0812V22.2263C75.9681 22.0236 75.7617 21.8878 75.5775 21.9686C74.8371 22.293 74.0105 22.4558 73.0964 22.4558C71.963 22.4558 70.9323 22.1958 70.0042 21.6746C69.0761 21.1534 68.3486 20.4402 67.8239 19.536C67.298 18.6306 67.0357 17.6164 67.0357 16.492C67.0357 15.3676 67.298 14.3534 67.8239 13.448C68.3497 12.5427 69.0761 11.8306 70.0042 11.3094C70.9323 10.7882 71.963 10.5282 73.0964 10.5282C74.007 10.5282 74.8336 10.691 75.5775 11.0154C75.7617 11.0962 75.9681 10.9592 75.9681 10.7578V9.89106C75.9693 9.76925 75.8958 9.6615 75.7839 9.62051ZM59.963 9.62285C59.8709 9.4214 59.6715 9.29257 59.4523 9.29257H58.6793C58.4589 9.29257 58.2595 9.4214 58.1686 9.62285L53.879 19.0464C53.7088 19.42 53.9805 19.8452 54.3909 19.8452H55.0834V19.844H62.7053C62.9269 19.844 63.1274 19.974 63.2184 20.1778L64.7154 23.5251C64.7609 23.6259 64.86 23.6914 64.9708 23.6914H65.9304C66.1344 23.6914 66.2697 23.4795 66.1846 23.2932L59.963 9.62285ZM62.0839 18.6107H56.0699C55.8658 18.6107 55.7306 18.3999 55.8133 18.2137L58.8973 11.2789C58.9661 11.1232 59.1865 11.1232 59.2553 11.2789L62.3404 18.2137C62.422 18.3999 62.2868 18.6107 62.0839 18.6107ZM44.5991 16.6454C43.9509 16.3913 43.1009 16.1348 42.0492 15.8736C41.1619 15.6546 40.4553 15.452 39.9306 15.2669C39.4048 15.0819 38.9687 14.8137 38.6201 14.4646C38.2726 14.1144 38.0978 13.6518 38.0978 13.0756C38.0978 12.3084 38.4149 11.7978 39.0503 11.3117C39.5855 10.9018 40.3446 10.6664 41.3228 10.602C41.472 10.5926 41.5898 10.4708 41.5898 10.3221V9.58654C41.5898 9.42609 41.4546 9.29491 41.2948 9.30428C40.3784 9.35464 39.5925 9.52681 38.9372 9.82079C38.1456 10.178 37.5579 10.6535 37.1766 11.2508C36.7942 11.847 36.603 12.3916 36.603 13.1177C36.603 14.009 36.8315 14.7153 37.2886 15.2365C37.7456 15.7577 38.2948 16.1453 38.9372 16.3983C39.5785 16.6525 40.439 16.916 41.5175 17.19C42.4188 17.4102 43.1219 17.6117 43.6267 17.7967C44.1316 17.9818 44.5583 18.2465 44.9058 18.5885C45.2544 18.9316 45.4281 19.3908 45.4281 19.967C45.4281 20.7212 45.1075 21.335 44.4651 21.8081C43.8226 22.2813 42.8607 22.5179 41.5781 22.5179C40.664 22.5179 39.7767 22.3574 38.9163 22.0342C38.1922 21.7636 37.5906 21.4216 37.1079 21.0105C36.9714 20.8934 36.7616 20.9379 36.6811 21.0996L36.3476 21.7589C36.2917 21.8679 36.3103 22.0037 36.399 22.0881C36.9201 22.5835 37.6255 22.9875 38.5163 23.3003C39.4922 23.6434 40.5125 23.8144 41.5781 23.8144C42.7523 23.8144 43.7422 23.6399 44.5478 23.2897C45.3535 22.9407 45.9505 22.4664 46.3388 21.8702C46.7282 21.2741 46.9229 20.6123 46.9229 19.885C46.9229 19.0078 46.6979 18.3121 46.2466 17.7967C45.7966 17.2837 45.2474 16.8996 44.5991 16.6454ZM79.0229 9.58654C79.0229 9.42374 78.8923 9.29257 78.7303 9.29257H77.7998C77.6378 9.29257 77.5072 9.42492 77.5072 9.58654V23.3963C77.5072 23.5591 77.6378 23.6903 77.7998 23.6903H78.7303C78.8923 23.6903 79.0229 23.5579 79.0229 23.3963V19.9061L79.0241 19.9049V17.9923L79.0229 17.9935V9.58654ZM55.3481 10.3267V9.57483C55.3481 9.41906 55.2222 9.29257 55.0671 9.29257H51.8992C51.7441 9.29257 51.6182 9.41906 51.6182 9.57483V10.3267C51.6182 10.4825 51.7441 10.609 51.8992 10.609H55.0671C55.2222 10.609 55.3481 10.4825 55.3481 10.3267ZM49.7492 9.29257H43.1953C43.0403 9.29257 42.9143 9.41906 42.9143 9.57483V10.3267C42.9143 10.4825 43.0403 10.609 43.1953 10.609H48.5144C48.6695 10.609 48.7954 10.7355 48.7954 10.8913V23.4092C48.7954 23.5649 48.9214 23.6903 49.0753 23.6903H50.0314C50.1864 23.6903 50.3112 23.5649 50.3112 23.4092L50.3123 9.85709C50.3112 9.54555 50.0593 9.29257 49.7492 9.29257ZM98.0561 16.6454C97.4078 16.3913 96.5578 16.1348 95.5061 15.8736C94.6188 15.6546 93.9122 15.452 93.3876 15.2669C92.8617 15.0819 92.4256 14.8137 92.077 14.4646C91.7296 14.1144 91.5547 13.6518 91.5547 13.0756C91.5547 12.3084 91.8718 11.7978 92.5073 11.3117C93.0424 10.9018 93.8015 10.6664 94.7797 10.602C94.929 10.5926 95.0467 10.4708 95.0467 10.3221V9.58654C95.0467 9.42609 94.9115 9.29491 94.7517 9.30428C93.8353 9.35464 93.0483 9.52681 92.3942 9.82079C91.6025 10.178 91.0148 10.6535 90.6336 11.2508C90.2511 11.847 90.0599 12.3916 90.0599 13.1177C90.0599 14.009 90.2884 14.7153 90.7455 15.2365C91.2025 15.7577 91.7517 16.1453 92.3942 16.3983C93.0354 16.6525 93.8959 16.916 94.9744 17.19C95.8757 17.4102 96.5788 17.6117 97.0836 17.7967C97.5885 17.9818 98.0152 18.2465 98.3627 18.5885C98.7113 18.9316 98.8851 19.3908 98.8851 19.967C98.8851 20.7212 98.5644 21.335 97.922 21.8081C97.2795 22.2813 96.3176 22.5179 95.0351 22.5179C94.1209 22.5179 93.2336 22.3574 92.3732 22.0342C91.6491 21.7636 91.0475 21.4216 90.5648 21.0105C90.4283 20.8934 90.2185 20.9379 90.138 21.0996L89.8046 21.7589C89.7486 21.8679 89.7673 22.0037 89.8559 22.0881C90.3771 22.5835 91.0825 22.9875 91.9732 23.3003C92.9492 23.6434 93.9694 23.8144 95.0351 23.8144C96.2092 23.8144 97.1991 23.6399 98.0047 23.2897C98.8104 22.9407 99.4074 22.4664 99.7957 21.8702C100.185 21.2741 100.38 20.6123 100.38 19.885C100.38 19.0078 100.155 18.3121 99.7036 17.7967C99.2535 17.2837 98.7032 16.8996 98.0561 16.6454ZM103.206 9.29257H96.6522C96.4972 9.29257 96.3712 9.41906 96.3712 9.57483V10.3267C96.3712 10.4825 96.4972 10.609 96.6522 10.609H101.971C102.126 10.609 102.252 10.7355 102.252 10.8913V23.4092C102.252 23.5649 102.378 23.6903 102.532 23.6903H103.488C103.643 23.6903 103.768 23.5649 103.768 23.4092L103.769 9.85709C103.768 9.54555 103.516 9.29257 103.206 9.29257ZM117.595 22.7779C118.464 23.2581 119.413 23.5544 120.444 23.668C120.637 23.6891 120.805 23.5322 120.805 23.3366V22.6338C120.805 22.464 120.678 22.3258 120.51 22.3036C119.738 22.2005 119.021 21.9662 118.362 21.595C117.448 21.0808 116.731 20.3675 116.212 19.4563C115.694 18.544 115.435 17.5262 115.435 16.4018C115.435 15.11 115.777 13.9587 116.462 12.9467C116.818 12.4209 117.263 11.9582 117.775 11.5858C118.589 10.9932 119.502 10.6348 120.51 10.5001C120.677 10.4778 120.805 10.3396 120.805 10.1698V9.46825C120.805 9.27266 120.637 9.11455 120.444 9.1368C119.413 9.25041 118.463 9.54672 117.595 10.0269C116.456 10.657 115.558 11.5319 114.903 12.6493C114.248 13.7666 113.92 15.0174 113.92 16.403C113.92 17.7874 114.248 19.0382 114.903 20.1567C115.558 21.2729 116.456 22.1478 117.595 22.7779ZM122.446 23.6645C123.472 23.5474 124.421 23.2499 125.294 22.7674C126.447 22.1302 127.348 21.2553 127.997 20.145C128.645 19.0347 128.969 17.7862 128.969 16.4018C128.969 15.0163 128.645 13.7689 127.997 12.6586C127.348 11.5483 126.448 10.6734 125.294 10.0363C124.421 9.55375 123.472 9.25626 122.446 9.13914C122.252 9.11689 122.083 9.275 122.083 9.47059V10.1721C122.083 10.3408 122.21 10.479 122.377 10.5024C123.144 10.6067 123.858 10.8409 124.515 11.2075C125.436 11.7217 126.16 12.4349 126.685 13.3461C127.211 14.2573 127.473 15.2751 127.473 16.4007C127.473 17.525 127.211 18.5428 126.685 19.4552C126.159 20.3664 125.436 21.0796 124.515 21.5938C123.856 21.9616 123.143 22.1958 122.377 22.3C122.21 22.3223 122.083 22.4605 122.083 22.6303V23.3319C122.083 23.5286 122.251 23.6868 122.446 23.6645ZM131.365 9.29257H128.197C128.042 9.29257 127.916 9.41906 127.916 9.57483V10.3267C127.916 10.4825 128.042 10.609 128.197 10.609H131.365C131.52 10.609 131.646 10.4825 131.646 10.3267V9.57483C131.646 9.41906 131.52 9.29257 131.365 9.29257ZM140.069 9.29257H133.515C133.205 9.29257 132.953 9.54555 132.953 9.85709L132.954 23.4092C132.954 23.5649 133.08 23.6903 133.234 23.6903H134.19C134.345 23.6903 134.47 23.5638 134.47 23.4092V10.8913C134.47 10.7355 134.596 10.609 134.751 10.609H140.07C140.225 10.609 140.351 10.4825 140.351 10.3267V9.57483C140.35 9.41906 140.224 9.29257 140.069 9.29257ZM107.901 9.20122L104.973 9.18833C104.75 9.18833 104.57 9.3687 104.57 9.5924V10.1089C104.57 10.3326 104.75 10.513 104.973 10.513L107.584 10.5305C109.739 10.5305 111.593 12.1937 111.694 14.3557C111.803 16.6642 109.971 18.5697 107.697 18.5697H105.053C104.917 18.5697 104.806 18.681 104.806 18.818V19.6109C104.806 19.748 104.917 19.8592 105.053 19.8592H108.029C111.023 19.8592 113.437 17.3681 113.33 14.3358C113.229 11.4488 110.779 9.20122 107.901 9.20122ZM83.309 16.2097C83.1189 15.9849 83.1294 15.6511 83.3323 15.4379L87.4575 11.1021C87.6359 10.9147 87.5041 10.6043 87.2453 10.6043H86.4151C86.2577 10.6043 86.1073 10.6676 85.9977 10.7812L80.4874 16.478C80.3859 16.5834 80.3288 16.7239 80.3288 16.8715V17.8576C80.3288 18.1212 80.646 18.2512 80.8302 18.0638L81.7256 17.1514C81.8469 17.0284 82.0463 17.0343 82.1594 17.1655L87.6324 23.49C87.7431 23.6177 87.9029 23.6903 88.0708 23.6903H88.9767C89.2262 23.6903 89.3615 23.3975 89.2006 23.2054L83.309 16.2097Z" fill="#112222"/>
</svg>
