<svg width="141" height="33" viewBox="0 0 141 33" fill="none" xmlns="http://www.w3.org/2000/svg">
<path d="M13.7164 0.00250977C12.5791 -0.0548863 11.6443 0.87985 11.7017 2.01723C11.7509 2.99179 12.5428 3.78245 13.5161 3.83165C14.6535 3.88905 15.5883 2.95431 15.5309 1.81693C15.4817 0.843538 14.691 0.0517064 13.7164 0.00250977ZM17.9368 2.42955C16.7994 2.37215 15.8647 3.30689 15.9221 4.44427C15.9713 5.41883 16.7631 6.20949 17.7365 6.25869C18.8739 6.31608 19.8086 5.38135 19.7512 4.24397C19.702 3.27057 18.9102 2.47874 17.9368 2.42955ZM22.156 4.85541C21.0186 4.79801 20.0839 5.73158 20.1413 6.87013C20.1905 7.84469 20.9823 8.63535 21.9557 8.68455C23.0931 8.74195 24.0278 7.80838 23.9704 6.66983C23.9224 5.69644 23.1306 4.90578 22.156 4.85541ZM26.1773 11.1116C27.3146 11.169 28.2494 10.2354 28.192 9.09686C28.1428 8.1223 27.351 7.33164 26.3776 7.28245C25.2402 7.22505 24.3054 8.15861 24.3628 9.29716C24.4109 10.2706 25.2027 11.0624 26.1773 11.1116ZM13.7164 4.85541C12.5791 4.79801 11.6443 5.73158 11.7017 6.87013C11.7509 7.84469 12.5428 8.63535 13.5161 8.68455C14.6535 8.74195 15.5883 7.80838 15.5309 6.66983C15.4828 5.69644 14.691 4.90578 13.7164 4.85541ZM17.9368 7.28245C16.7994 7.22505 15.8647 8.15861 15.9221 9.29716C15.9713 10.2717 16.7631 11.0624 17.7365 11.1116C18.8739 11.169 19.8086 10.2354 19.7512 9.09686C19.702 8.12347 18.9102 7.33164 17.9368 7.28245ZM22.156 9.70948C21.0186 9.65208 20.0839 10.5868 20.1413 11.7242C20.1905 12.6988 20.9823 13.4894 21.9557 13.5386C23.0931 13.596 24.0278 12.6613 23.9704 11.5239C23.9224 10.5493 23.1306 9.75868 22.156 9.70948ZM26.3764 12.1353C25.239 12.0779 24.3043 13.0127 24.3617 14.1501C24.4109 15.1246 25.2027 15.9153 26.1761 15.9645C27.3135 16.0219 28.2482 15.0871 28.1908 13.9498C28.1416 12.9764 27.3498 12.1845 26.3764 12.1353ZM13.7164 9.70948C12.5791 9.65208 11.6443 10.5868 11.7017 11.7242C11.7509 12.6988 12.5428 13.4894 13.5161 13.5386C14.6535 13.596 15.5883 12.6613 15.5309 11.5239C15.4817 10.5493 14.691 9.75868 13.7164 9.70948ZM17.9368 12.1353C16.7994 12.0779 15.8647 13.0127 15.9221 14.1501C15.9713 15.1246 16.7631 15.9153 17.7365 15.9645C18.8739 16.0219 19.8086 15.0871 19.7512 13.9498C19.702 12.9764 18.9102 12.1845 17.9368 12.1353ZM22.156 14.5624C21.0186 14.505 20.0839 15.4397 20.1413 16.5771C20.1905 17.5517 20.9823 18.3423 21.9557 18.3915C23.0931 18.4489 24.0278 17.5142 23.9704 16.3768C23.9224 15.4034 23.1306 14.6116 22.156 14.5624ZM26.3764 16.9882C25.239 16.9308 24.3043 17.8656 24.3617 19.003C24.4109 19.9775 25.2027 20.7682 26.1761 20.8174C27.3135 20.8748 28.2482 19.94 28.1908 18.8027C28.1416 17.8293 27.3498 17.0386 26.3764 16.9882ZM13.7164 14.5624C12.5791 14.505 11.6443 15.4397 11.7017 16.5771C11.7509 17.5517 12.5428 18.3423 13.5161 18.3915C14.6535 18.4489 15.5883 17.5142 15.5309 16.3768C15.4817 15.4034 14.691 14.6116 13.7164 14.5624ZM17.9368 16.9882C16.7994 16.9308 15.8647 17.8656 15.9221 19.003C15.9713 19.9775 16.7631 20.7682 17.7365 20.8174C18.8739 20.8748 19.8086 19.94 19.7512 18.8027C19.702 17.8293 18.9102 17.0386 17.9368 16.9882ZM22.156 19.4153C21.0186 19.3579 20.0839 20.2926 20.1413 21.43C20.1905 22.4046 20.9823 23.1952 21.9557 23.2444C23.0931 23.3018 24.0278 22.3671 23.9704 21.2297C23.9212 20.2563 23.1306 19.4645 22.156 19.4153ZM26.3764 21.8423C25.239 21.7849 24.3043 22.7185 24.3617 23.857C24.4109 24.8316 25.2027 25.6223 26.1761 25.6715C27.3135 25.7289 28.2482 24.7953 28.1908 23.6567C28.1416 22.6833 27.351 21.8915 26.3764 21.8423Z" fill="white"/>
<path d="M17.8371 27.3242C17.686 27.3242 17.5419 27.3523 17.4084 27.4015C17.2948 27.4425 17.1776 27.4718 17.057 27.48C17.0324 27.4812 17.0089 27.4824 16.9902 27.4824C16.1222 27.4824 15.3691 26.9951 14.9872 26.2794L14.9813 26.2677C14.9298 26.1705 14.8958 26.065 14.8771 25.9561C14.7705 25.3552 14.2504 24.8972 13.6179 24.8972C13.4703 24.8972 13.3286 24.9241 13.1974 24.971C13.0802 25.0132 12.9584 25.0436 12.8342 25.053C12.8097 25.0553 12.7874 25.0553 12.7675 25.0553C11.8784 25.0553 11.1206 24.5622 10.7492 23.8207L10.7481 23.8196C10.7047 23.7317 10.6743 23.638 10.6579 23.5408C10.5548 22.934 10.0324 22.4713 9.39634 22.4713C9.24992 22.4713 9.11053 22.4983 8.97934 22.544C8.87509 22.5803 8.76733 22.6049 8.65722 22.6119C8.61974 22.6142 8.58342 22.6154 8.55531 22.6154C7.61003 22.6154 6.79594 21.9349 6.45508 21.1137L6.40823 20.9837C6.35669 20.7998 6.26649 20.6323 6.14467 20.4918C6.04979 20.3816 5.9596 20.2692 5.88112 20.1474C5.8085 20.0338 5.72885 19.9049 5.69136 19.8229C5.55666 19.5266 5.44772 19.2033 5.44772 18.9034C5.44772 18.5415 5.53323 18.1994 5.6855 17.896C5.69488 17.8773 5.70659 17.8539 5.72065 17.8293C5.80498 17.6747 5.9186 17.5376 6.04862 17.4181C6.31569 17.171 6.47734 16.8125 6.45977 16.4166C6.42931 15.7548 5.88932 15.2183 5.22751 15.1926C4.49424 15.1645 3.891 15.7501 3.891 16.4764C3.891 16.8489 4.0503 17.1839 4.30331 17.4193C4.44622 17.5517 4.57272 17.7016 4.66643 17.8726C4.684 17.9042 4.69923 17.9335 4.71094 17.9593C4.84331 18.2463 4.91827 18.5661 4.91827 18.9034C4.91827 19.2326 4.89367 19.844 4.42162 20.2903C4.10653 20.5878 3.85117 20.9685 3.89568 21.4464C3.94605 21.9958 4.35017 22.4514 4.88665 22.5803C5.14903 22.6435 5.39501 22.6166 5.61405 22.5334C5.72767 22.4901 5.84715 22.4631 5.96897 22.4584C5.9924 22.4573 6.01231 22.4573 6.02871 22.4573C6.88848 22.4573 7.64517 22.9164 8.03055 23.6181L8.03172 23.6193C8.07974 23.7059 8.10903 23.802 8.12074 23.9015C8.19219 24.5434 8.73453 25.0424 9.39517 25.0424C9.54861 25.0424 9.69386 25.0132 9.82974 24.9628C9.93867 24.923 10.0511 24.8949 10.1671 24.8878C10.1987 24.8855 10.228 24.8843 10.2491 24.8843C11.0737 24.8843 11.7976 25.3306 12.1959 25.9901C12.1982 25.9948 12.2017 25.9994 12.2052 26.0053C12.2779 26.1306 12.3306 26.2677 12.3563 26.4118C12.4629 27.0127 12.9842 27.4707 13.6167 27.4707C13.7737 27.4707 13.9224 27.4402 14.0595 27.3875C14.1872 27.3383 14.323 27.3149 14.4601 27.3125C14.4671 27.3125 14.473 27.3125 14.4788 27.3125C15.2941 27.3125 15.9969 27.733 16.394 28.3761C16.3975 28.382 16.401 28.3878 16.4045 28.3937C16.49 28.5378 16.5486 28.6971 16.5814 28.8622C16.7009 29.4701 17.2444 29.9258 17.8933 29.8977C18.5551 29.8696 19.0939 29.3296 19.1209 28.6666C19.1502 27.9286 18.5645 27.3242 17.8371 27.3242ZM5.17714 12.9084C5.88698 12.9084 6.46211 12.3333 6.46211 11.6235C6.46211 10.9136 5.88698 10.3385 5.17714 10.3385C4.4673 10.3385 3.89217 10.9136 3.89217 11.6235C3.89217 12.3333 4.4673 12.9084 5.17714 12.9084ZM5.17714 8.05554C5.88698 8.05554 6.46211 7.4804 6.46211 6.77057C6.46211 6.06073 5.88698 5.4856 5.17714 5.4856C4.4673 5.4856 3.89217 6.06073 3.89217 6.77057C3.89217 7.4804 4.4673 8.05554 5.17714 8.05554Z" fill="white"/>
<path d="M22.2262 24.5903C21.9756 24.5645 21.7366 24.5973 21.5187 24.6747C21.4133 24.7121 21.3056 24.7473 21.1966 24.7719C21.0877 24.7965 20.9612 24.8199 20.8698 24.8199C20.3029 24.8199 19.8121 24.4954 19.572 24.0222C19.5357 23.9519 19.4982 23.8313 19.4701 23.7294C19.4478 23.6497 19.4279 23.5689 19.4138 23.4869C19.2862 22.7314 18.629 22.1551 17.8372 22.1551C17.6193 22.1551 17.4132 22.1996 17.2246 22.2781C17.193 22.291 17.1613 22.305 17.1285 22.3167C16.9786 22.3694 16.8169 22.4011 16.6494 22.4011C16.0532 22.4011 15.5413 22.0426 15.3164 21.5296C15.2544 21.3878 15.197 21.0728 15.197 21.0728C15.074 20.3102 14.4145 19.728 13.618 19.728C13.4247 19.728 13.2396 19.7644 13.0675 19.8276C13.0675 19.8276 12.6587 19.9658 12.4338 19.9658C11.8165 19.9658 11.2905 19.5816 11.0785 19.0393C11.0258 18.9046 10.9696 18.6 10.9696 18.6C10.8993 18.2346 10.7048 17.9136 10.4319 17.6829C10.3546 17.6173 10.2808 17.5493 10.2129 17.4732C10.1367 17.3889 10.0477 17.2811 10.0009 17.2026C9.8767 16.9894 9.80642 16.7411 9.80642 16.4764C9.80642 16.1671 9.90247 15.8802 10.0676 15.6447C10.1028 15.5932 10.1637 15.5252 10.2199 15.4667C10.2843 15.3987 10.3546 15.3355 10.4261 15.2746C10.7751 14.9806 10.9989 14.5425 10.9989 14.0493C10.9989 13.5562 10.7751 13.117 10.4249 12.8241C10.3476 12.7585 10.2714 12.6918 10.2023 12.618C10.1754 12.5887 10.1496 12.5606 10.1309 12.5383C9.92824 12.2888 9.80759 11.9702 9.80759 11.6235C9.80759 11.3623 9.8767 11.1163 9.99735 10.9043C10.0477 10.8164 10.1496 10.6958 10.2305 10.6067C10.2914 10.54 10.357 10.4791 10.4261 10.4217C10.8009 10.1078 11.0305 9.62516 10.9953 9.09102C10.9426 8.27928 10.275 7.62918 9.46205 7.59755C8.54839 7.56124 7.79639 8.29216 7.79639 9.19761C7.79639 9.68958 8.01894 10.1288 8.36918 10.4228C8.43946 10.4826 8.5074 10.5435 8.57065 10.6114C8.63859 10.6852 8.71941 10.7778 8.76158 10.8457C8.90448 11.0706 8.98765 11.3388 8.98765 11.6247C8.98765 11.9714 8.86583 12.29 8.66318 12.5406C8.64444 12.5629 8.61985 12.591 8.5929 12.6203C8.52262 12.6941 8.44766 12.762 8.36918 12.8276C8.02011 13.1216 7.79639 13.5597 7.79639 14.0529C7.79639 14.5472 8.02129 14.9876 8.37269 15.2804C8.44414 15.3402 8.51208 15.4011 8.57651 15.469C8.62219 15.517 8.66904 15.5698 8.6995 15.6096C8.88106 15.8521 8.98765 16.1531 8.98765 16.4799C8.98765 16.7821 8.89511 17.0632 8.73698 17.2963C8.6995 17.3514 8.63273 17.4263 8.57416 17.4908C8.51091 17.5587 8.44063 17.622 8.36918 17.6817C7.99434 17.9956 7.76593 18.477 7.7999 19.0112C7.85144 19.8182 8.51091 20.4672 9.31797 20.5058C9.55927 20.5175 9.79002 20.4754 9.99852 20.391C10.1356 20.3348 10.2785 20.2938 10.4261 20.2751C10.4858 20.268 10.5444 20.2622 10.5889 20.2622C11.0937 20.2622 11.5388 20.5199 11.8001 20.9111C11.8247 20.9474 11.8504 20.9978 11.8762 21.0517C11.9558 21.2203 12.0097 21.3996 12.0378 21.5835C12.1585 22.3484 12.818 22.934 13.6168 22.934C13.8195 22.934 14.0127 22.8954 14.1908 22.8263C14.3149 22.7782 14.4438 22.7408 14.575 22.722C14.6558 22.7103 14.7413 22.7009 14.8034 22.7009C15.3282 22.7009 15.7873 22.9785 16.0439 23.3944C16.079 23.4518 16.1165 23.5384 16.1493 23.6228C16.2008 23.7551 16.2348 23.8934 16.2594 24.0339C16.3894 24.7883 17.0442 25.3611 17.836 25.3611C18.0375 25.3611 18.2296 25.3224 18.4076 25.2545C18.5564 25.1971 18.7122 25.1584 18.8703 25.135C18.9265 25.1268 18.9816 25.1209 19.0261 25.1209C19.6083 25.1209 20.1108 25.4641 20.3427 25.9585C20.3685 26.0147 20.3966 26.1002 20.4188 26.1775C20.4446 26.2677 20.4622 26.3591 20.4774 26.4504C20.6027 27.2095 21.2622 27.7881 22.0564 27.7881C22.9782 27.7881 23.7185 27.008 23.6541 26.0721C23.6002 25.299 22.9935 24.6711 22.2262 24.5903ZM9.39762 5.94478C10.282 5.94478 10.9989 5.22791 10.9989 4.34354C10.9989 3.45918 10.282 2.74231 9.39762 2.74231C8.51325 2.74231 7.79639 3.45918 7.79639 4.34354C7.79639 5.22791 8.51325 5.94478 9.39762 5.94478Z" fill="white"/>
<path d="M0.956992 19.8721C1.4841 19.8721 1.91164 19.4387 1.91164 18.9034C1.91164 18.3681 1.4841 17.9347 0.956992 17.9347C0.429885 17.9347 0.0023432 18.3681 0.0023432 18.9034C0.0023432 19.4387 0.429885 19.8721 0.956992 19.8721ZM0.956992 15.0192C1.4841 15.0192 1.91164 14.5858 1.91164 14.0505C1.91164 13.5152 1.4841 13.0818 0.956992 13.0818C0.429885 13.0818 0.0023432 13.5152 0.0023432 14.0505C0.0023432 14.5858 0.429885 15.0192 0.956992 15.0192ZM0.956992 10.1663C1.4841 10.1663 1.91164 9.73289 1.91164 9.19759C1.91164 8.66228 1.4841 8.22888 0.956992 8.22888C0.429885 8.22888 0.0023432 8.66228 0.0023432 9.19759C0.0023432 9.73289 0.429885 10.1663 0.956992 10.1663ZM13.6169 30.0675C13.5806 30.0675 13.2854 30.0886 13.1753 30.0886C11.9642 30.0886 10.9158 29.4186 10.3899 28.4393C10.35 28.3655 10.2598 28.2016 10.2598 28.2016C10.1076 27.8712 9.77959 27.6405 9.39656 27.6405C9.36494 27.6405 9.07093 27.6709 8.95145 27.6709C7.78127 27.6709 6.76337 27.0454 6.22104 26.1189C6.15544 26.0064 6.03245 25.7605 6.03245 25.7605C5.87783 25.4383 5.55454 25.2134 5.17619 25.2134C5.14925 25.2134 4.84236 25.2404 4.71585 25.2404C3.49179 25.2404 2.43289 24.5563 1.91164 23.5583C1.88587 23.5091 1.86127 23.4588 1.84136 23.4061C1.70314 23.0441 1.35994 22.7864 0.954649 22.7864C0.427542 22.7864 0 23.2198 0 23.7551C0 24.2904 0.427542 24.7238 0.954649 24.7238C0.996817 24.7238 1.29903 24.7016 1.40679 24.7016C2.52074 24.7016 3.49765 25.2685 4.05638 26.1212C4.14892 26.263 4.30237 26.5722 4.30237 26.5722C4.45113 26.9119 4.78496 27.1497 5.17502 27.1497C5.2125 27.1497 5.51237 27.1321 5.62013 27.1321C6.80437 27.1321 7.83281 27.7717 8.36929 28.7169C8.422 28.8095 8.52976 29.0133 8.52976 29.0133C8.68087 29.3448 9.01002 29.5767 9.39422 29.5767C9.42702 29.5767 9.72337 29.5556 9.83699 29.5556C10.9943 29.5556 12.0052 30.1647 12.5522 31.0737C12.6236 31.1932 12.7572 31.4544 12.7572 31.4544C12.9118 31.7789 13.2362 32.0038 13.6146 32.0038C14.1417 32.0038 14.5692 31.5704 14.5692 31.035C14.5716 30.5009 14.144 30.0675 13.6169 30.0675Z" fill="white"/>
<path d="M54.3121 21.1594H53.3445C53.2344 21.1594 53.1337 21.2238 53.088 21.3246L52.1872 23.2948C52.1017 23.4822 52.2376 23.6942 52.4438 23.6942H53.4265C53.5378 23.6942 53.6385 23.6286 53.6842 23.5279L54.5686 21.5588C54.6529 21.3702 54.5159 21.1594 54.3121 21.1594ZM76.1343 9.6216C75.2909 9.32057 74.3773 9.16946 73.3945 9.16946C71.9678 9.16946 70.6793 9.48456 69.5267 10.1159C68.3753 10.7473 67.4734 11.6211 66.8209 12.7386C66.1696 13.856 65.844 15.1082 65.844 16.4927C65.844 17.8784 66.1696 19.1294 66.8209 20.2469C67.4722 21.3644 68.3706 22.2394 69.5162 22.8696C70.6618 23.5009 71.9467 23.816 73.3734 23.816C74.3609 23.816 75.2816 23.6602 76.1343 23.351C76.2456 23.31 76.3194 23.2022 76.3194 23.0839V22.2288C76.3194 22.0262 76.1121 21.8903 75.927 21.9711C75.1832 22.2956 74.3527 22.4584 73.4343 22.4584C72.2958 22.4584 71.2603 22.1984 70.3279 21.6771C69.3955 21.1559 68.6646 20.4425 68.1375 19.5382C67.6092 18.6328 67.3457 17.6184 67.3457 16.4939C67.3457 15.3694 67.6092 14.355 68.1375 13.4496C68.6658 12.5441 69.3955 11.8319 70.3279 11.3107C71.2603 10.7894 72.2958 10.5294 73.4343 10.5294C74.3492 10.5294 75.1797 10.6922 75.927 11.0167C76.1121 11.0975 76.3194 10.9605 76.3194 10.759V9.89219C76.3206 9.77037 76.2468 9.6626 76.1343 9.6216ZM60.2403 9.62395C60.1477 9.42247 59.9474 9.29363 59.7272 9.29363H58.9506C58.7292 9.29363 58.5289 9.42247 58.4376 9.62395L54.1282 19.0486C53.9572 19.4223 54.2301 19.8475 54.6424 19.8475H55.3382V19.8463H62.9953C63.2178 19.8463 63.4193 19.9763 63.5107 20.1801L65.0147 23.5279C65.0604 23.6286 65.1599 23.6942 65.2712 23.6942H66.2352C66.4402 23.6942 66.5761 23.4822 66.4906 23.2959L60.2403 9.62395ZM62.371 18.6129H56.3291C56.1241 18.6129 55.9883 18.402 56.0714 18.2158L59.1697 11.2802C59.2388 11.1244 59.4602 11.1244 59.5293 11.2802L62.6286 18.2158C62.7106 18.402 62.5748 18.6129 62.371 18.6129ZM44.8054 16.6474C44.1541 16.3932 43.3002 16.1366 42.2437 15.8754C41.3523 15.6564 40.6424 15.4538 40.1153 15.2687C39.587 15.0836 39.149 14.8154 38.7987 14.4663C38.4497 14.1161 38.274 13.6534 38.274 13.0771C38.274 12.3099 38.5926 11.7991 39.231 11.313C39.7686 10.9031 40.5311 10.6676 41.5139 10.6032C41.6638 10.5938 41.7822 10.472 41.7822 10.3232V9.58763C41.7822 9.42716 41.6463 9.29597 41.4858 9.30534C40.5651 9.35571 39.7756 9.5279 39.1173 9.8219C38.322 10.1792 37.7316 10.6547 37.3486 11.2521C36.9644 11.8483 36.7723 12.393 36.7723 13.1193C36.7723 14.0107 37.0019 14.717 37.461 15.2382C37.9202 15.7595 38.4719 16.1472 39.1173 16.4002C39.7616 16.6544 40.626 16.9179 41.7095 17.192C42.615 17.4122 43.3213 17.6137 43.8285 17.7988C44.3357 17.9839 44.7644 18.2486 45.1135 18.5906C45.4637 18.9338 45.6382 19.393 45.6382 19.9693C45.6382 20.7237 45.3161 21.3374 44.6707 21.8107C44.0253 22.2839 43.0589 22.5205 41.7704 22.5205C40.8521 22.5205 39.9607 22.36 39.0962 22.0367C38.3688 21.7662 37.7644 21.4241 37.2795 21.013C37.1424 20.8958 36.9316 20.9404 36.8508 21.102L36.5158 21.7615C36.4595 21.8704 36.4783 22.0063 36.5673 22.0906C37.0909 22.5861 37.7996 22.9902 38.6945 23.303C39.6749 23.6462 40.6998 23.8172 41.7704 23.8172C42.95 23.8172 43.9445 23.6427 44.7539 23.2924C45.5633 22.9434 46.163 22.469 46.5531 21.8727C46.9443 21.2765 47.1399 20.6147 47.1399 19.8873C47.1399 19.01 46.9138 18.3142 46.4605 17.7988C46.0084 17.2857 45.4567 16.9015 44.8054 16.6474ZM79.3883 9.58763C79.3883 9.42482 79.2571 9.29363 79.0943 9.29363H78.1596C77.9968 9.29363 77.8656 9.42599 77.8656 9.58763V23.399C77.8656 23.5618 77.9968 23.693 78.1596 23.693H79.0943C79.2571 23.693 79.3883 23.5607 79.3883 23.399V19.9084L79.3895 19.9072V17.9944L79.3883 17.9956V9.58763ZM55.6041 10.3279V9.57592C55.6041 9.42013 55.4776 9.29363 55.3218 9.29363H52.1392C51.9834 9.29363 51.8569 9.42013 51.8569 9.57592V10.3279C51.8569 10.4837 51.9834 10.6102 52.1392 10.6102H55.3218C55.4776 10.6102 55.6041 10.4837 55.6041 10.3279ZM49.9792 9.29363H43.3951C43.2393 9.29363 43.1128 9.42013 43.1128 9.57592V10.3279C43.1128 10.4837 43.2393 10.6102 43.3951 10.6102H48.7388C48.8946 10.6102 49.0211 10.7367 49.0211 10.8925V23.4119C49.0211 23.5677 49.1476 23.693 49.3022 23.693H50.2627C50.4185 23.693 50.5438 23.5677 50.5438 23.4119L50.545 9.85822C50.5438 9.54664 50.2908 9.29363 49.9792 9.29363ZM98.5094 16.6474C97.8582 16.3932 97.0042 16.1366 95.9477 15.8754C95.0563 15.6564 94.3465 15.4538 93.8193 15.2687C93.2911 15.0836 92.853 14.8154 92.5027 14.4663C92.1537 14.1161 91.978 13.6534 91.978 13.0771C91.978 12.3099 92.2966 11.7991 92.935 11.313C93.4726 10.9031 94.2352 10.6676 95.2179 10.6032C95.3679 10.5938 95.4862 10.472 95.4862 10.3232V9.58763C95.4862 9.42716 95.3503 9.29597 95.1898 9.30534C94.2691 9.35571 93.4785 9.5279 92.8214 9.8219C92.026 10.1792 91.4356 10.6547 91.0526 11.2521C90.6684 11.8483 90.4763 12.393 90.4763 13.1193C90.4763 14.0107 90.7059 14.717 91.1651 15.2382C91.6242 15.7595 92.1759 16.1472 92.8214 16.4002C93.4656 16.6544 94.3301 16.9179 95.4135 17.192C96.319 17.4122 97.0253 17.6137 97.5325 17.7988C98.0397 17.9839 98.4684 18.2486 98.8175 18.5906C99.1677 18.9338 99.3423 19.393 99.3423 19.9693C99.3423 20.7237 99.0201 21.3374 98.3747 21.8107C97.7293 22.2839 96.7629 22.5205 95.4745 22.5205C94.5561 22.5205 93.6647 22.36 92.8003 22.0367C92.0729 21.7662 91.4684 21.4241 90.9835 21.013C90.8465 20.8958 90.6356 20.9404 90.5548 21.102L90.2198 21.7615C90.1636 21.8704 90.1823 22.0063 90.2713 22.0906C90.7949 22.5861 91.5036 22.9902 92.3985 23.303C93.3789 23.6462 94.4038 23.8172 95.4745 23.8172C96.654 23.8172 97.6485 23.6427 98.4579 23.2924C99.2673 22.9434 99.867 22.469 100.257 21.8727C100.648 21.2765 100.844 20.6147 100.844 19.8873C100.844 19.01 100.618 18.3142 100.165 17.7988C99.7124 17.2857 99.1595 16.9015 98.5094 16.6474ZM103.683 9.29363H97.0991C96.9433 9.29363 96.8168 9.42013 96.8168 9.57592V10.3279C96.8168 10.4837 96.9433 10.6102 97.0991 10.6102H102.443C102.599 10.6102 102.725 10.7367 102.725 10.8925V23.4119C102.725 23.5677 102.852 23.693 103.006 23.693H103.967C104.123 23.693 104.248 23.5677 104.248 23.4119L104.249 9.85822C104.248 9.54664 103.995 9.29363 103.683 9.29363ZM118.139 22.7805C119.012 23.2608 119.965 23.5571 121.001 23.6708C121.195 23.6919 121.364 23.5349 121.364 23.3393V22.6365C121.364 22.4666 121.236 22.3284 121.067 22.3061C120.292 22.2031 119.571 21.9688 118.91 21.5975C117.991 21.0833 117.271 20.3699 116.75 19.4586C116.228 18.5461 115.968 17.5282 115.968 16.4037C115.968 15.1117 116.313 13.9603 117 12.9482C117.358 12.4223 117.805 11.9596 118.319 11.5871C119.137 10.9944 120.054 10.636 121.067 10.5013C121.235 10.479 121.364 10.3408 121.364 10.171V9.46933C121.364 9.27371 121.195 9.11558 121.001 9.13784C119.965 9.25146 119.01 9.54781 118.139 10.0281C116.994 10.6582 116.093 11.5332 115.434 12.6507C114.776 13.7682 114.447 15.0192 114.447 16.4049C114.447 17.7894 114.776 19.0404 115.434 20.1591C116.093 21.2754 116.994 22.1504 118.139 22.7805ZM123.012 23.6673C124.042 23.5501 124.996 23.2526 125.873 22.77C127.032 22.1328 127.937 21.2578 128.588 20.1473C129.24 19.0369 129.565 17.7883 129.565 16.4037C129.565 15.018 129.24 13.7705 128.588 12.6601C127.937 11.5496 127.033 10.6746 125.873 10.0374C124.996 9.55484 124.042 9.25731 123.012 9.14018C122.817 9.11792 122.647 9.27606 122.647 9.47167V10.1733C122.647 10.342 122.775 10.4802 122.943 10.5036C123.713 10.6079 124.43 10.8422 125.091 11.2088C126.016 11.723 126.744 12.4364 127.271 13.3477C127.799 14.259 128.063 15.2769 128.063 16.4025C128.063 17.527 127.799 18.5449 127.271 19.4574C126.742 20.3687 126.016 21.0821 125.091 21.5963C124.429 21.9641 123.712 22.1984 122.943 22.3026C122.775 22.3249 122.647 22.4631 122.647 22.633V23.3346C122.647 23.5314 122.816 23.6895 123.012 23.6673ZM131.973 9.29363H128.79C128.634 9.29363 128.508 9.42013 128.508 9.57592V10.3279C128.508 10.4837 128.634 10.6102 128.79 10.6102H131.973C132.128 10.6102 132.255 10.4837 132.255 10.3279V9.57592C132.255 9.42013 132.128 9.29363 131.973 9.29363ZM140.717 9.29363H134.132C133.821 9.29363 133.568 9.54664 133.568 9.85822L133.569 23.4119C133.569 23.5677 133.696 23.693 133.85 23.693H134.811C134.966 23.693 135.092 23.5665 135.092 23.4119V10.8925C135.092 10.7367 135.218 10.6102 135.374 10.6102H140.718C140.874 10.6102 141 10.4837 141 10.3279V9.57592C140.999 9.42013 140.872 9.29363 140.717 9.29363ZM108.4 9.20226L105.458 9.18938C105.234 9.18938 105.054 9.36976 105.054 9.59349V10.1101C105.054 10.3338 105.234 10.5142 105.458 10.5142L108.082 10.5317C110.246 10.5317 112.109 12.1951 112.211 14.3574C112.32 16.6661 110.479 18.5719 108.195 18.5719H105.539C105.402 18.5719 105.29 18.6832 105.29 18.8202V19.6132C105.29 19.7503 105.402 19.8615 105.539 19.8615H108.528C111.536 19.8615 113.962 17.3701 113.854 14.3375C113.752 11.4501 111.291 9.20226 108.4 9.20226ZM83.6942 16.2116C83.5033 15.9867 83.5138 15.6529 83.7176 15.4397L87.8619 11.1034C88.0411 10.9159 87.9087 10.6055 87.6487 10.6055H86.8147C86.6565 10.6055 86.5054 10.6688 86.3953 10.7824L80.8595 16.4799C80.7576 16.5853 80.7002 16.7258 80.7002 16.8734V17.8597C80.7002 18.1233 81.0188 18.2533 81.2039 18.0659L82.1035 17.1534C82.2253 17.0304 82.4256 17.0362 82.5392 17.1674L88.0376 23.4927C88.1488 23.6204 88.3093 23.693 88.478 23.693H89.3881C89.6388 23.693 89.7747 23.4002 89.613 23.2081L83.6942 16.2116Z" fill="white"/>
</svg>
